<svg width="127" height="33" viewBox="0 0 127 33" fill="none" xmlns="http://www.w3.org/2000/svg">
<path d="M12.2545 3.5C8.80023 3.5 6 6.30024 6 9.75451C6 13.2088 8.80023 16.0068 12.2545 16.0068C12.5823 16.0068 12.9783 15.9783 13.291 15.9243L13.5134 16.4594L12.2602 19.5019C12.6746 19.5025 13.0959 19.5739 13.5078 19.7238C13.8 19.8302 14.0705 19.9699 14.3165 20.137L15.8308 16.4594L14.3252 12.778C13.3832 13.4219 12.1552 13.6179 11.0012 13.1979C9.09948 12.5057 8.11896 10.403 8.81112 8.50122C9.50329 6.59951 11.6061 5.61897 13.5078 6.31114C14.9976 6.8534 15.9221 8.26141 15.9198 9.76026L18.422 10.7908C18.4782 10.4536 18.509 10.1077 18.509 9.75451C18.509 6.30024 15.7088 3.5 12.2545 3.5Z" fill="#5009B5"/>
<path d="M25.6687 3.5C22.2144 3.5 19.4142 6.30024 19.4142 9.75451C19.4142 10.0823 19.4448 10.4781 19.499 10.791L18.9619 11.0131L15.92 9.76032C15.9194 10.1747 15.848 10.596 15.6981 11.0078C15.5918 11.2999 15.4522 11.5702 15.2852 11.816L18.9619 13.3306L22.6452 11.8252C22.0013 10.8832 21.8053 9.65523 22.2253 8.50122C22.9175 6.5995 25.0203 5.61896 26.922 6.31113C28.8237 7.00329 29.8043 9.10607 29.1121 11.0078C28.5698 12.4976 27.1618 13.4221 25.663 13.4198L24.6318 15.922C24.969 15.9782 25.3155 16.009 25.6687 16.009C29.123 16.009 31.9232 13.2088 31.9232 9.75451C31.9232 6.30024 29.123 3.5 25.6687 3.5Z" fill="#44B8F3"/>
<path d="M18.9617 19.5912L15.278 21.0967C15.9219 22.0386 16.1179 23.2666 15.6979 24.4206C15.0057 26.3224 12.903 27.3029 11.0012 26.6107C9.0995 25.9186 8.11896 23.8158 8.81113 21.9141C9.3534 20.4242 10.7614 19.4998 12.2603 19.502L13.2908 16.9999C12.9536 16.9436 12.6077 16.9121 12.2545 16.9121C8.80024 16.9121 6 19.7131 6 23.1673C6 26.6216 8.80024 29.4218 12.2545 29.4218C15.7088 29.4218 18.509 26.6216 18.509 23.1673C18.509 22.8396 18.4811 22.4622 18.4232 22.1309L18.9617 21.9087L22.0032 23.1617C22.0038 22.7473 22.0752 22.326 22.2251 21.9141C22.3314 21.622 22.4711 21.3517 22.6381 21.1058L18.9617 19.5912Z" fill="#794CFF"/>
<path d="M25.6686 16.9125C25.3408 16.9125 24.9485 16.9432 24.6317 16.998L24.4099 16.4605L25.6628 13.4203C25.2484 13.4197 24.8271 13.3483 24.4153 13.1984C24.1231 13.092 23.8526 12.9523 23.6066 12.7852L22.0924 16.4605L23.5979 20.1442C24.5398 19.5003 25.7679 19.3043 26.9219 19.7243C28.8236 20.4165 29.8041 22.5193 29.112 24.421C28.4198 26.3227 26.317 27.3032 24.4153 26.6111C22.9254 26.0688 22.001 24.6608 22.0033 23.1619L19.5011 22.1314C19.4449 22.4686 19.4141 22.8145 19.4141 23.1677C19.4141 26.622 22.2143 29.4222 25.6686 29.4222C29.1229 29.4222 31.9231 26.622 31.9231 23.1677C31.9231 19.7134 29.1229 16.9125 25.6686 16.9125Z" fill="#00BBBA"/>
<path fill-rule="evenodd" clip-rule="evenodd" d="M87.4466 6.56641H90.8856V25.9592H87.4466V16.7982V6.56641ZM53.9351 26.3538C55.6826 26.3538 57.0638 25.6492 58.0504 24.4934V25.9592H61.5174V12.4575H58.0504V13.8105C57.092 12.7111 55.7108 12.0629 53.9351 12.0629C50.1861 12.0629 47.4519 15.1353 47.4519 19.2225C47.4519 23.4224 50.3553 26.3538 53.9351 26.3538ZM38.3614 19.1943C38.3614 17.024 39.8836 15.3047 42.1384 15.3047C43.4631 15.3047 44.4779 15.7275 45.3234 16.5448L47.2963 14.0925C46.1126 12.8524 44.2805 12.0633 41.9692 12.0633C38.0233 12.0633 34.9229 15.2765 34.9229 19.2225C34.9229 23.1402 38.0233 26.3534 42.0256 26.3534C44.1677 26.3534 46.1126 25.5079 47.1837 24.3242L45.436 21.7873C44.5905 22.6328 43.4914 23.112 42.1102 23.112C39.9118 23.112 38.3614 21.3645 38.3614 19.1943ZM58.0503 19.1943C58.0503 17.0239 56.5564 15.3045 54.4988 15.3045C52.4128 15.3045 50.8908 17.0239 50.8908 19.1943C50.8908 21.3646 52.4128 23.1122 54.4988 23.1122C56.5564 23.1122 58.0503 21.3646 58.0503 19.1943ZM63.9962 25.9592H67.4352V18.4051C67.4352 16.5729 68.309 15.4171 69.6902 15.4171C70.3383 15.4171 71.015 15.6427 71.466 16.0091L72.9035 12.7393C72.3679 12.3165 71.6352 12.0629 70.7332 12.0629C69.3238 12.0629 68.1962 12.7957 67.4352 13.9233V12.4575H63.9962V25.9592ZM72.4239 19.2225C72.4239 15.2763 75.3553 12.0629 79.245 12.0629C83.1068 12.0629 86.0381 15.0507 86.0381 18.9407C86.0381 19.3635 86.0099 19.8427 85.9538 20.068H75.9473C76.2855 21.9566 77.723 23.3096 79.8088 23.3096C81.1618 23.3096 82.3176 22.7176 83.1068 21.9002L84.8826 24.2398C83.8678 25.4236 81.951 26.3538 79.6678 26.3538C75.4681 26.3538 72.4239 23.1404 72.4239 19.2225ZM82.5147 17.8977H76.0036C76.3981 16.1783 77.5819 14.9943 79.3013 14.9943C80.9081 14.9943 82.1201 15.9809 82.5147 17.8977ZM99.4824 12.0629C95.5645 12.0629 92.4639 15.2763 92.4639 19.2225C92.4639 23.1404 95.5645 26.3538 99.4824 26.3538C103.4 26.3538 106.529 23.1404 106.529 19.2225C106.529 15.2763 103.4 12.0629 99.4824 12.0629ZM103.062 19.1943C103.062 17.0239 101.568 15.3045 99.5106 15.3045C97.4246 15.3045 95.9026 17.0239 95.9026 19.1943C95.9026 21.3646 97.4246 23.1122 99.5106 23.1122C101.568 23.1122 103.062 21.3646 103.062 19.1943ZM108.107 25.9592H111.545V18.2923C111.545 16.4601 112.588 15.3045 114.308 15.3045C115.971 15.3045 117.042 16.4601 117.042 18.2923V25.9592H120.481V17.7849C120.481 14.2615 118.479 12.0629 115.35 12.0629C113.687 12.0629 112.391 12.6829 111.545 13.7823V12.4575H108.107V25.9592Z" fill="#5009B5"/>
</svg>
